<mxfile host="app.diagrams.net" modified="2020-10-06T12:51:26.071Z" agent="5.0 (Windows NT 10.0; Win64; x64) AppleWebKit/537.36 (KHTML, like Gecko) Chrome/85.0.4183.121 Safari/537.36 Edg/85.0.564.68" etag="OZyuMvwbFE-Aa2Q92Vbw" version="13.7.7" type="github">
  <diagram id="C5RBs43oDa-KdzZeNtuy" name="Page-1">
    <mxGraphModel dx="1550" dy="888" grid="1" gridSize="10" guides="1" tooltips="1" connect="1" arrows="1" fold="1" page="1" pageScale="1" pageWidth="827" pageHeight="1169" math="1" shadow="0">
      <root>
        <mxCell id="WIyWlLk6GJQsqaUBKTNV-0" />
        <mxCell id="WIyWlLk6GJQsqaUBKTNV-1" parent="WIyWlLk6GJQsqaUBKTNV-0" />
        <mxCell id="Ev1wTJMXK1I8TJt93S75-26" value="&lt;b&gt;&lt;font style=&quot;font-size: 27px&quot;&gt;Sketch of Proofs&lt;/font&gt;&lt;/b&gt;" style="text;html=1;strokeColor=none;fillColor=none;align=center;verticalAlign=middle;whiteSpace=wrap;rounded=0;" vertex="1" parent="WIyWlLk6GJQsqaUBKTNV-1">
          <mxGeometry x="301" y="40" width="226" height="20" as="geometry" />
        </mxCell>
        <mxCell id="Ev1wTJMXK1I8TJt93S75-27" value="&lt;font style=&quot;font-size: 14px&quot;&gt;Initial bounds&lt;br&gt;(Lemma 9 &amp;amp; 10)&lt;br&gt;&lt;/font&gt;" style="rounded=1;whiteSpace=wrap;html=1;" vertex="1" parent="WIyWlLk6GJQsqaUBKTNV-1">
          <mxGeometry x="130" y="120" width="220" height="60" as="geometry" />
        </mxCell>
        <mxCell id="Ev1wTJMXK1I8TJt93S75-28" value="&lt;span style=&quot;font-size: 14px&quot;&gt;Concentration&lt;br&gt;(Lemma 14 &amp;amp; 16, Theorem 15)&lt;br&gt;&lt;/span&gt;" style="rounded=1;whiteSpace=wrap;html=1;" vertex="1" parent="WIyWlLk6GJQsqaUBKTNV-1">
          <mxGeometry x="460" y="120" width="220" height="60" as="geometry" />
        </mxCell>
        <mxCell id="Ev1wTJMXK1I8TJt93S75-30" value="&lt;font style=&quot;font-size: 14px&quot;&gt;$$\lambda_{\text{min}}(G(\theta^0)\geq\frac{3}{4}\kappa^2\left(\frac{1}{\kappa&#39;}\lambda_a+\kappa&#39;\lambda_w\right)$$&lt;br&gt;&lt;/font&gt;" style="rounded=1;whiteSpace=wrap;html=1;" vertex="1" parent="WIyWlLk6GJQsqaUBKTNV-1">
          <mxGeometry x="120" y="290" width="280" height="90" as="geometry" />
        </mxCell>
        <mxCell id="Ev1wTJMXK1I8TJt93S75-31" value="&lt;font style=&quot;font-size: 14px&quot;&gt;Initial bounds&lt;br&gt;(Lemma 9 &amp;amp; 10)&lt;br&gt;&lt;/font&gt;" style="rounded=1;whiteSpace=wrap;html=1;" vertex="1" parent="WIyWlLk6GJQsqaUBKTNV-1">
          <mxGeometry x="460" y="305" width="220" height="60" as="geometry" />
        </mxCell>
      </root>
    </mxGraphModel>
  </diagram>
</mxfile>
